<svg width="52" height="50" viewBox="0 0 52 50" fill="none" xmlns="http://www.w3.org/2000/svg">
<path fill-rule="evenodd" clip-rule="evenodd" d="M16.1742 2.221C18.7157 2.1085 19.5261 2.0835 26.0001 2.0835C32.4741 2.0835 33.2844 2.11058 35.8237 2.221C38.3631 2.33141 40.0964 2.721 41.6131 3.28558C43.2012 3.86266 44.6421 4.76475 45.8337 5.93141C47.0471 7.07516 47.9831 8.4585 48.5811 9.98766C49.1704 11.446 49.5734 13.1127 49.6904 15.5502C49.8074 17.9981 49.8334 18.7772 49.8334 25.0002C49.8334 31.2252 49.8052 32.0043 49.6904 34.4481C49.5756 36.8856 49.1704 38.5522 48.5811 40.0106C47.9831 41.5399 47.0455 42.9256 45.8337 44.071C44.6421 45.2377 43.2012 46.1377 41.6131 46.7127C40.0964 47.2793 38.3631 47.6668 35.8281 47.7793C33.2844 47.8918 32.4741 47.9168 26.0001 47.9168C19.5261 47.9168 18.7157 47.8897 16.1742 47.7793C13.6392 47.6689 11.9059 47.2793 10.3892 46.7127C8.79874 46.1376 7.35769 45.2361 6.16641 44.071C4.9539 42.9266 4.0156 41.5416 3.41691 40.0127C2.82975 38.5543 2.42675 36.8877 2.30975 34.4502C2.19275 32.0022 2.16675 31.2231 2.16675 25.0002C2.16675 18.7752 2.19491 17.996 2.30975 15.5543C2.42458 13.1127 2.82975 11.446 3.41691 9.98766C4.01648 8.45866 4.9555 7.07373 6.16858 5.92933C7.35817 4.76371 8.79777 3.8615 10.3871 3.28558C11.9037 2.721 13.6371 2.3335 16.1721 2.221H16.1742ZM35.6309 6.346C33.1176 6.23558 32.3636 6.21266 26.0001 6.21266C19.6366 6.21266 18.8826 6.23558 16.3692 6.346C14.0444 6.44808 12.7834 6.821 11.9427 7.13558C10.8312 7.55225 10.0361 8.046 9.20191 8.84808C8.41118 9.58777 7.80264 10.4882 7.42091 11.4835C7.09375 12.2918 6.70591 13.5043 6.59975 15.7397C6.48491 18.1564 6.46108 18.8814 6.46108 25.0002C6.46108 31.1189 6.48491 31.8439 6.59975 34.2606C6.70591 36.496 7.09375 37.7085 7.42091 38.5168C7.80225 39.5106 8.41108 40.4127 9.20191 41.1522C9.97108 41.9127 10.9092 42.4981 11.9427 42.8647C12.7834 43.1793 14.0444 43.5522 16.3692 43.6543C18.8826 43.7647 19.6344 43.7877 26.0001 43.7877C32.3657 43.7877 33.1176 43.7647 35.6309 43.6543C37.9557 43.5522 39.2167 43.1793 40.0574 42.8647C41.1689 42.4481 41.9641 41.9543 42.7982 41.1522C43.5891 40.4127 44.1979 39.5106 44.5792 38.5168C44.9064 37.7085 45.2942 36.496 45.4004 34.2606C45.5152 31.8439 45.5391 31.1189 45.5391 25.0002C45.5391 18.8814 45.5152 18.1564 45.4004 15.7397C45.2942 13.5043 44.9064 12.2918 44.5792 11.4835C44.1459 10.4147 43.6324 9.65016 42.7982 8.84808C42.0289 8.08781 41.0924 7.50268 40.0574 7.13558C39.2167 6.821 37.9557 6.44808 35.6309 6.346V6.346ZM22.9559 32.0647C24.656 32.7452 26.5491 32.8371 28.3118 32.3246C30.0744 31.8121 31.5974 30.7271 32.6206 29.2548C33.6437 27.7826 34.1035 26.0145 33.9215 24.2525C33.7395 22.4904 32.9269 20.8439 31.6226 19.5939C30.7911 18.7949 29.7857 18.1831 28.6788 17.8025C27.5719 17.422 26.391 17.2822 25.2212 17.3931C24.0513 17.5041 22.9216 17.863 21.9133 18.4442C20.9051 19.0253 20.0434 19.8142 19.3902 20.754C18.7371 21.6938 18.3088 22.7612 18.1362 23.8792C17.9636 24.9973 18.0509 26.1383 18.3919 27.22C18.7329 28.3017 19.3191 29.2973 20.1083 30.135C20.8975 30.9727 21.87 31.6318 22.9559 32.0647ZM17.3377 16.671C18.4753 15.5772 19.8258 14.7095 21.3121 14.1176C22.7983 13.5256 24.3913 13.2209 26.0001 13.2209C27.6088 13.2209 29.2018 13.5256 30.6881 14.1176C32.1744 14.7095 33.5249 15.5772 34.6624 16.671C35.8 17.7648 36.7023 19.0633 37.318 20.4924C37.9336 21.9216 38.2505 23.4533 38.2505 25.0002C38.2505 26.547 37.9336 28.0788 37.318 29.5079C36.7023 30.937 35.8 32.2355 34.6624 33.3293C32.365 35.5384 29.2491 36.7794 26.0001 36.7794C22.7511 36.7794 19.6351 35.5384 17.3377 33.3293C15.0404 31.1203 13.7497 28.1242 13.7497 25.0002C13.7497 21.8761 15.0404 18.88 17.3377 16.671V16.671ZM40.9674 14.9752C41.2493 14.7195 41.475 14.412 41.6311 14.0709C41.7872 13.7299 41.8705 13.3622 41.8761 12.9896C41.8818 12.617 41.8096 12.2471 41.664 11.9018C41.5183 11.5566 41.302 11.2429 41.028 10.9794C40.754 10.7159 40.4278 10.508 40.0687 10.3679C39.7096 10.2278 39.3249 10.1584 38.9374 10.1639C38.5499 10.1693 38.1675 10.2494 37.8128 10.3995C37.4581 10.5496 37.1383 10.7666 36.8724 11.0377C36.3552 11.5648 36.0721 12.265 36.0831 12.9896C36.0941 13.7142 36.3983 14.4062 36.9312 14.9186C37.4642 15.431 38.1838 15.7236 38.9374 15.7341C39.691 15.7447 40.4192 15.4724 40.9674 14.9752V14.9752Z" fill="white"/>
</svg>
