<svg width="48" height="46" viewBox="0 0 48 46" fill="none" xmlns="http://www.w3.org/2000/svg">
<path d="M9.40621 0C4.23353 0 0 4.05704 0 9.01428V36.9872C0 41.9443 4.23343 46 9.40621 46H38.5953C43.7681 46 48 41.9444 48 36.9872V9.01428C48 4.05713 43.7681 0 38.5953 0H9.40621ZM11.772 7.59093C14.2522 7.59093 15.7799 9.15128 15.827 11.2024C15.827 13.2081 14.2521 14.8124 11.724 14.8124H11.6775C9.24452 14.8124 7.67198 13.2082 7.67198 11.2024C7.67198 9.15133 9.29211 7.59093 11.772 7.59093H11.772ZM33.1452 17.1774C37.9151 17.1774 41.4908 20.1651 41.4908 26.5855V38.5714H34.2418V27.3891C34.2418 24.5792 33.1927 22.6621 30.5694 22.6621C28.5667 22.6621 27.373 23.9542 26.8489 25.2025C26.6575 25.649 26.6104 26.2727 26.6104 26.8975V38.5714H19.3615C19.3615 38.5714 19.4566 19.629 19.3615 17.6676H26.6119V20.6278C27.5752 19.2035 29.2983 17.1773 33.1452 17.1773V17.1774ZM8.09956 17.6691H15.3485V38.5715H8.09956V17.6691V17.6691Z" fill="white"/>
</svg>
