<svg width="48" height="48" viewBox="0 0 48 48" fill="none" xmlns="http://www.w3.org/2000/svg">
<path d="M45.7624 7.58447L39.5586 1.38641C39.121 0.946856 38.6009 0.598101 38.028 0.360177C37.4552 0.122254 36.8411 -0.000148658 36.2208 1.35492e-07C34.9568 1.35492e-07 33.7684 0.495146 32.8772 1.38641L26.2016 8.06214C25.762 8.49976 25.4133 9.01993 25.1753 9.59274C24.9374 10.1656 24.815 10.7797 24.8152 11.4C24.8152 12.6641 25.3103 13.8524 26.2016 14.7437L31.083 19.6252C29.9404 22.1438 28.3517 24.4351 26.3938 26.3883C24.4407 28.3511 22.1497 29.9455 19.6308 31.0951L14.7493 26.2136C14.3117 25.774 13.7915 25.4253 13.2187 25.1874C12.6459 24.9494 12.0317 24.827 11.4115 24.8272C10.1474 24.8272 8.95909 25.3223 8.06784 26.2136L1.38639 32.8835C0.946305 33.3219 0.597255 33.8431 0.359325 34.4169C0.121394 34.9907 -0.000721847 35.606 3.20987e-06 36.2272C3.20987e-06 37.4913 0.495142 38.6796 1.38639 39.5709L7.57853 45.7631C8.99987 47.1903 10.9629 48 12.9784 48C13.4037 48 13.8114 47.965 14.2134 47.8951C22.0657 46.6019 29.8539 42.4252 36.1393 36.1456C42.4188 29.8718 46.5896 22.0893 47.9003 14.2136C48.2964 11.8078 47.4983 9.33204 45.7624 7.58447V7.58447Z" fill="white"/>
</svg>
